<mxfile host="app.diagrams.net" modified="2022-11-10T11:18:43.460Z" agent="5.0 (Macintosh; Intel Mac OS X 10_15_7) AppleWebKit/537.36 (KHTML, like Gecko) Chrome/107.0.0.0 Safari/537.36" etag="wJiJyXiVgaMG_El25IiD" version="20.5.3" type="github">
  <diagram id="-dJRnYCm8dfzhLlgNSa2" name="第 1 页">
    <mxGraphModel dx="946" dy="504" grid="1" gridSize="10" guides="1" tooltips="1" connect="1" arrows="1" fold="1" page="1" pageScale="1" pageWidth="827" pageHeight="1169" math="0" shadow="0">
      <root>
        <mxCell id="0" />
        <mxCell id="1" parent="0" />
        <mxCell id="LtjWIHhK_xER8uesZrPD-7" style="edgeStyle=none;rounded=0;orthogonalLoop=1;jettySize=auto;html=1;entryX=0.5;entryY=0;entryDx=0;entryDy=0;fontSize=22;" edge="1" parent="1" source="LtjWIHhK_xER8uesZrPD-1" target="LtjWIHhK_xER8uesZrPD-2">
          <mxGeometry relative="1" as="geometry" />
        </mxCell>
        <mxCell id="LtjWIHhK_xER8uesZrPD-10" value="撤退" style="edgeLabel;html=1;align=center;verticalAlign=middle;resizable=0;points=[];fontSize=22;" vertex="1" connectable="0" parent="LtjWIHhK_xER8uesZrPD-7">
          <mxGeometry x="-0.1857" y="-4" relative="1" as="geometry">
            <mxPoint x="35" y="-11" as="offset" />
          </mxGeometry>
        </mxCell>
        <mxCell id="LtjWIHhK_xER8uesZrPD-8" style="edgeStyle=none;rounded=0;orthogonalLoop=1;jettySize=auto;html=1;entryX=0;entryY=0.5;entryDx=0;entryDy=0;fontSize=22;" edge="1" parent="1" source="LtjWIHhK_xER8uesZrPD-1" target="LtjWIHhK_xER8uesZrPD-4">
          <mxGeometry relative="1" as="geometry" />
        </mxCell>
        <mxCell id="LtjWIHhK_xER8uesZrPD-9" value="撤退" style="edgeLabel;html=1;align=center;verticalAlign=middle;resizable=0;points=[];fontSize=22;" vertex="1" connectable="0" parent="LtjWIHhK_xER8uesZrPD-8">
          <mxGeometry x="0.04" y="-1" relative="1" as="geometry">
            <mxPoint x="-2" y="19" as="offset" />
          </mxGeometry>
        </mxCell>
        <mxCell id="LtjWIHhK_xER8uesZrPD-1" value="齐" style="rounded=0;whiteSpace=wrap;html=1;fillColor=#dae8fc;strokeColor=#6c8ebf;fontSize=22;" vertex="1" parent="1">
          <mxGeometry x="140" y="140" width="120" height="60" as="geometry" />
        </mxCell>
        <mxCell id="LtjWIHhK_xER8uesZrPD-2" value="楚" style="rounded=0;whiteSpace=wrap;html=1;fillColor=#d5e8d4;strokeColor=#82b366;fontSize=22;" vertex="1" parent="1">
          <mxGeometry x="240" y="270" width="120" height="60" as="geometry" />
        </mxCell>
        <mxCell id="LtjWIHhK_xER8uesZrPD-12" value="进攻" style="edgeStyle=none;rounded=0;orthogonalLoop=1;jettySize=auto;html=1;entryX=0.5;entryY=0;entryDx=0;entryDy=0;fontSize=22;" edge="1" parent="1" source="LtjWIHhK_xER8uesZrPD-4" target="LtjWIHhK_xER8uesZrPD-2">
          <mxGeometry x="-0.4754" y="28" relative="1" as="geometry">
            <mxPoint as="offset" />
          </mxGeometry>
        </mxCell>
        <mxCell id="LtjWIHhK_xER8uesZrPD-13" style="edgeStyle=none;rounded=0;orthogonalLoop=1;jettySize=auto;html=1;exitX=0;exitY=0.25;exitDx=0;exitDy=0;entryX=1;entryY=0.25;entryDx=0;entryDy=0;fontSize=22;" edge="1" parent="1" source="LtjWIHhK_xER8uesZrPD-4" target="LtjWIHhK_xER8uesZrPD-1">
          <mxGeometry relative="1" as="geometry" />
        </mxCell>
        <mxCell id="LtjWIHhK_xER8uesZrPD-15" value="进攻" style="edgeLabel;html=1;align=center;verticalAlign=middle;resizable=0;points=[];fontSize=22;" vertex="1" connectable="0" parent="LtjWIHhK_xER8uesZrPD-13">
          <mxGeometry x="-0.02" y="-3" relative="1" as="geometry">
            <mxPoint y="-12" as="offset" />
          </mxGeometry>
        </mxCell>
        <mxCell id="LtjWIHhK_xER8uesZrPD-4" value="燕" style="rounded=0;whiteSpace=wrap;html=1;fillColor=#ffe6cc;strokeColor=#d79b00;fontSize=22;" vertex="1" parent="1">
          <mxGeometry x="360" y="140" width="120" height="60" as="geometry" />
        </mxCell>
      </root>
    </mxGraphModel>
  </diagram>
</mxfile>
